<?xml version="1.0" standalone="no"?>
<!DOCTYPE svg PUBLIC "-//W3C//DTD SVG 20010904//EN"
 "http://www.w3.org/TR/2001/REC-SVG-20010904/DTD/svg10.dtd">
<svg version="1.0" xmlns="http://www.w3.org/2000/svg"
 width="80.000000pt" height="154.000000pt" viewBox="0 0 80.000000 154.000000"
 preserveAspectRatio="xMidYMid meet">

<g transform="translate(0.000000,154.000000) scale(0.100000,-0.100000)"
fill="#000000" stroke="none">
<path d="M360 1403 c-19 -26 -61 -81 -93 -122 -261 -344 -247 -694 39 -993 61
-63 64 -69 64 -115 0 -66 9 -93 31 -93 14 0 19 10 24 48 3 26 8 61 11 77 3 20
22 48 55 80 147 144 229 325 229 506 0 133 -35 249 -117 390 -31 55 -189 262
-201 266 -4 1 -23 -19 -42 -44z m68 -957 c6 -135 5 -163 -8 -178 -13 -17 -17
-17 -34 -5 -18 13 -18 23 -7 288 6 151 15 297 18 324 8 51 9 26 31 -429z"/>
</g>
</svg>
