<?xml version="1.0" standalone="no"?>
<!DOCTYPE svg PUBLIC "-//W3C//DTD SVG 20010904//EN"
 "http://www.w3.org/TR/2001/REC-SVG-20010904/DTD/svg10.dtd">
<svg version="1.0" xmlns="http://www.w3.org/2000/svg"
 width="62.000000pt" height="63.000000pt" viewBox="0 0 62.000000 63.000000"
 preserveAspectRatio="xMidYMid meet">

<g transform="translate(0.000000,63.000000) scale(0.100000,-0.100000)"
fill="#000000" stroke="none">
<path d="M7 623 c-4 -3 -7 -145 -7 -315 l0 -308 310 0 310 0 0 315 0 315 -303
0 c-167 0 -307 -3 -310 -7z m504 -46 c54 -37 66 -65 51 -133 -6 -31 -25 -86
-41 -121 l-30 -63 40 0 c21 0 39 -4 39 -8 0 -18 -37 -41 -77 -48 -40 -6 -42
-8 -48 -48 -13 -86 -24 -105 -65 -117 -21 -7 -46 -9 -55 -5 -22 8 -45 67 -45
113 l0 39 -47 1 c-27 1 -67 2 -90 3 -34 0 -45 5 -61 28 -50 70 -85 239 -62
306 19 59 36 65 203 65 82 0 151 2 155 5 15 16 101 5 133 -17z"/>
<path d="M406 581 c-17 -7 -16 -8 7 -24 13 -9 35 -33 48 -53 20 -32 23 -49 21
-128 l-1 -91 30 61 c34 70 47 150 30 182 -19 36 -98 67 -135 53z"/>
<path d="M84 571 c-36 -16 -54 -51 -54 -106 0 -93 52 -246 88 -260 12 -4 26 4
45 25 25 28 26 33 13 58 -21 41 -15 199 10 240 10 17 15 34 11 38 -11 11 -91
14 -113 5z"/>
<path d="M235 558 c-25 -19 -55 -73 -55 -97 0 -5 17 -7 39 -4 32 4 41 2 55
-18 20 -29 21 -101 1 -139 -14 -27 -14 -30 5 -40 17 -9 20 -21 20 -85 0 -98
11 -125 50 -125 43 0 67 29 75 91 3 30 11 71 16 91 8 31 6 45 -14 85 -44 87
-42 143 3 143 33 0 32 18 -4 58 -56 61 -141 79 -191 40z"/>
<path d="M210 441 c-23 -6 -25 -12 -28 -70 -3 -67 13 -101 47 -101 37 0 58
132 25 164 -8 9 -16 16 -17 15 -1 -1 -13 -4 -27 -8z"/>
<path d="M422 438 c-17 -17 -15 -36 12 -93 l24 -50 3 63 c1 34 2 68 3 74 1 17
-27 21 -42 6z m23 -8 c3 -5 1 -10 -4 -10 -6 0 -11 5 -11 10 0 6 2 10 4 10 3 0
8 -4 11 -10z"/>
<path d="M201 247 c-6 -6 -11 -14 -11 -18 0 -9 39 1 45 11 8 13 -22 19 -34 7z"/>
<path d="M253 236 c-4 -8 -19 -19 -33 -25 l-25 -10 27 0 c36 -1 58 8 58 24 0
21 -18 27 -27 11z"/>
<path d="M457 244 c-21 -21 43 -33 73 -14 12 8 9 10 -12 10 -14 0 -33 2 -40 5
-8 3 -17 3 -21 -1z"/>
</g>
</svg>
